<?xml version="1.0" encoding="utf-8"?><svg xmlns="http://www.w3.org/2000/svg"><symbol viewBox="0 0 20 21" id="calendar" xmlns="http://www.w3.org/2000/svg"><path d="M19.544 3.444A1.499 1.499 0 0018.462 3h-1.539V1.874c0-.515-.188-.957-.565-1.324A1.874 1.874 0 0015-.001h-.769a1.88 1.88 0 00-1.358.551 1.784 1.784 0 00-.565 1.324V3H7.692V1.874c0-.515-.188-.957-.565-1.324a1.877 1.877 0 00-1.358-.551H5A1.88 1.88 0 003.642.55a1.783 1.783 0 00-.566 1.324V3H1.538a1.5 1.5 0 00-1.082.444A1.424 1.424 0 000 4.499v15c0 .407.152.758.457 1.055.304.297.664.446 1.081.446h16.924c.417 0 .777-.149 1.082-.445.304-.298.456-.649.456-1.056v-15c0-.406-.151-.757-.456-1.055zM5 19.499H1.538v-3.375H5v3.375zm0-4.125H1.538v-3.75H5v3.75zm0-4.499H1.538V7.499H5v3.376zm-.271-5.362a.356.356 0 01-.114-.264V1.874c0-.101.038-.189.114-.263A.375.375 0 015 1.499h.769c.104 0 .194.037.271.112a.355.355 0 01.114.263v3.375a.36.36 0 01-.114.264.377.377 0 01-.271.112H5a.379.379 0 01-.271-.112zm4.886 13.986H5.769v-3.375h3.846v3.375zm0-4.125H5.769v-3.75h3.846v3.75zm0-4.499H5.769V7.499h3.846v3.376zm4.616 8.624h-3.846v-3.375h3.846v3.375zm0-4.125h-3.846v-3.75h3.846v3.75zm0-4.499h-3.846V7.499h3.846v3.376zm-.271-5.362a.356.356 0 01-.114-.264V1.874c0-.101.038-.189.114-.263a.373.373 0 01.271-.112H15c.104 0 .194.037.271.112a.355.355 0 01.114.263v3.375c0 .102-.038.19-.114.264a.377.377 0 01-.271.112h-.77a.378.378 0 01-.27-.112zm4.502 13.986H15v-3.375h3.461v3.375zm0-4.125H15v-3.75h3.461v3.75zm0-4.499H15V7.499h3.461v3.376z"/></symbol><symbol viewBox="0 0 15 12" id="cart" xmlns="http://www.w3.org/2000/svg"><path d="M11.539 10.91c0 .301.113.558.338.771.225.214.497.319.816.319.318 0 .59-.106.815-.319.226-.213.338-.47.338-.771s-.113-.558-.338-.771a1.144 1.144 0 00-.815-.32c-.319 0-.591.107-.816.32a1.019 1.019 0 00-.338.771z"/><path d="M14.829 1.251a.57.57 0 00-.405-.162H3.596a6.114 6.114 0 00-.041-.218c-.021-.105-.038-.188-.049-.25a1.31 1.31 0 00-.068-.227.617.617 0 00-.117-.208.574.574 0 00-.437-.188H.577a.573.573 0 00-.406.161.515.515 0 000 .768c.114.108.25.162.406.162h1.839l1.595 7.016c-.012.022-.073.13-.185.324s-.2.363-.266.507a.895.895 0 00-.099.337c0 .148.057.276.171.384.114.107.25.162.406.162h9.232a.567.567 0 00.405-.162c.114-.108.171-.236.171-.384s-.057-.276-.171-.384a.575.575 0 00-.405-.162H4.976c.144-.272.216-.455.216-.545a.87.87 0 00-.022-.188 13.717 13.717 0 00-.055-.226 1.994 1.994 0 01-.04-.183l9.412-1.04a.57.57 0 00.369-.183.52.52 0 00.144-.363V1.634a.511.511 0 00-.171-.383z"/><path d="M3.461 10.91c0 .301.113.558.338.771s.497.319.816.319c.318 0 .59-.106.815-.319.226-.213.338-.47.338-.771s-.113-.558-.338-.771a1.144 1.144 0 00-.815-.32c-.319 0-.591.107-.816.32a1.022 1.022 0 00-.338.771z"/></symbol><symbol viewBox="0 0 6 12" id="fb" xmlns="http://www.w3.org/2000/svg"><path d="M3.992 3.931V2.897c0-.155.008-.275.023-.361a.69.69 0 01.105-.25.432.432 0 01.266-.172c.123-.031.286-.047.489-.047h1.109V-.001H4.211c-1.026 0-1.763.227-2.211.68-.448.454-.672 1.123-.672 2.007v1.245H0V6h1.329v6h2.664V6h1.774L6 3.931H3.992z"/></symbol><symbol viewBox="0 0 12 12" id="gplus" xmlns="http://www.w3.org/2000/svg"><path d="M6.905 7.641a3.75 3.75 0 00-.422-.477 6.292 6.292 0 00-.461-.4 9.747 9.747 0 01-.422-.347 1.731 1.731 0 01-.31-.346.654.654 0 01-.12-.367c0-.173.056-.335.166-.487.111-.151.245-.298.404-.44a7.65 7.65 0 00.476-.465c.159-.168.293-.391.404-.668.11-.276.166-.592.166-.948 0-.423-.094-.83-.282-1.219a2.147 2.147 0 00-.793-.909h.974l.973-.57H4.507c-.447 0-.896.048-1.348.145a3.053 3.053 0 00-1.688 1.021C1.014 1.695.786 2.297.786 2.97c0 .711.256 1.303.768 1.774a2.626 2.626 0 001.842.707c.144 0 .313-.011.505-.036a6.428 6.428 0 01-.108.311.94.94 0 00-.051.309c0 .317.154.676.461 1.075-.364.01-.724.042-1.08.098s-.729.142-1.118.26c-.39.117-.738.288-1.046.511a2.188 2.188 0 00-.692.797C.089 9.132 0 9.457 0 9.75c0 .322.072.614.217.876.144.262.329.476.555.642.226.166.487.305.782.418.296.112.589.193.88.242.291.048.578.072.861.072 1.289 0 2.298-.315 3.029-.945.673-.587 1.009-1.265 1.009-2.034 0-.273-.04-.53-.119-.768a2.116 2.116 0 00-.309-.612zm-2.78-2.622a1.4 1.4 0 01-.699-.188 1.858 1.858 0 01-.563-.487 3.459 3.459 0 01-.404-.674c-.116-.25-.201-.5-.256-.75a3.265 3.265 0 01-.083-.714c0-.461.123-.858.368-1.19.245-.331.591-.498 1.039-.498.317 0 .604.099.862.296.257.197.459.447.605.75.147.303.26.616.339.941.08.325.119.631.119.919 0 .481-.104.867-.313 1.158-.21.291-.548.437-1.014.437zm1.994 5.416a1.416 1.416 0 01-.537.53 2.751 2.751 0 01-.725.282c-.257.06-.528.09-.812.09-.308 0-.613-.036-.916-.108s-.592-.183-.868-.329a1.805 1.805 0 01-.671-.606 1.545 1.545 0 01-.256-.876c0-.289.065-.546.194-.772.13-.226.296-.406.498-.541.202-.134.438-.245.707-.332a4.62 4.62 0 01.779-.18 5.672 5.672 0 011.125-.036l.22.151.238.166a10.837 10.837 0 01.454.351l.198.184c.086.081.15.152.191.212l.152.22c.06.087.102.169.126.248.024.08.047.166.068.26a1.55 1.55 0 01-.165 1.086z"/><path d="M10.154 1.845V-.001h-.923v1.846H7.384v.923h1.847v1.846h.923V2.769H12v-.924h-1.846z"/></symbol><symbol viewBox="0 0 20 21" id="people" xmlns="http://www.w3.org/2000/svg"><path d="M10 10.499c1.506 0 2.792-.513 3.857-1.538 1.066-1.025 1.598-2.263 1.598-3.712 0-1.45-.532-2.687-1.598-3.713C12.792.51 11.506-.002 10-.002S7.208.51 6.143 1.536C5.077 2.562 4.544 3.799 4.544 5.249c0 1.449.533 2.687 1.599 3.712C7.208 9.986 8.494 10.499 10 10.499z"/><path d="M19.953 16.044c-.034-.461-.1-.958-.199-1.491-.1-.533-.225-1.027-.376-1.483a6.93 6.93 0 00-.611-1.333 4.816 4.816 0 00-.881-1.107 3.712 3.712 0 00-1.215-.731 4.423 4.423 0 00-1.584-.274c-.085 0-.285.098-.597.294s-.665.415-1.058.656-.905.46-1.535.657c-.629.195-1.262.294-1.896.294s-1.267-.099-1.897-.294c-.629-.196-1.141-.415-1.534-.657s-.746-.46-1.059-.656-.512-.295-.598-.295c-.578 0-1.105.092-1.584.274a3.73 3.73 0 00-1.215.731 4.86 4.86 0 00-.881 1.107 7.019 7.019 0 00-.611 1.333c-.151.456-.277.95-.376 1.483s-.166 1.03-.199 1.491c-.033.46-.049.932-.049 1.415 0 1.094.346 1.958 1.037 2.591.691.633 1.61.951 2.756.951h12.418c1.146 0 2.064-.317 2.756-.951.691-.634 1.037-1.497 1.037-2.591 0-.482-.016-.954-.049-1.414z"/></symbol><symbol viewBox="0 0 34 44" id="play" xmlns="http://www.w3.org/2000/svg"><path d="M0-.002v44l34-22.001L0-.002zm2 3.676l28.318 18.323L2 40.323V3.674z"/></symbol><symbol viewBox="0 0 16 16" id="search" xmlns="http://www.w3.org/2000/svg"><path d="M15.645 13.903l-3.298-3.298a6.582 6.582 0 001.192-3.837c0-.916-.178-1.793-.534-2.63a6.795 6.795 0 00-1.442-2.164C10.957 1.369 10.236.888 9.399.532s-1.713-.534-2.63-.534c-.917 0-1.793.178-2.63.534s-1.557.837-2.163 1.443A6.776 6.776 0 00.533 4.138 6.652 6.652 0 000 6.768c0 .917.178 1.794.534 2.63.355.836.836 1.557 1.442 2.163s1.327 1.087 2.164 1.443a6.65 6.65 0 002.63.534 6.584 6.584 0 003.837-1.192l3.298 3.289c.231.244.519.365.865.365.333 0 .622-.121.865-.365.244-.244.365-.533.365-.866 0-.34-.118-.628-.355-.866zM9.813 9.812c-.843.843-1.857 1.265-3.043 1.265s-2.2-.421-3.043-1.265c-.844-.844-1.266-1.857-1.266-3.044 0-1.186.421-2.2 1.264-3.043S5.583 2.46 6.769 2.46s2.201.422 3.044 1.265 1.265 1.857 1.265 3.043c0 1.187-.422 2.2-1.265 3.044z"/></symbol><symbol viewBox="0 0 10 9" id="share" xmlns="http://www.w3.org/2000/svg"><path d="M9.894 2.987L7.037.107C6.966.036 6.882 0 6.786 0s-.18.036-.251.107-.106.156-.106.254V1.8h-1.25c-2.653 0-4.28.756-4.883 2.267C.099 4.569 0 5.193 0 5.94c0 .622.236 1.468.708 2.536l.059.135.075.169c.022.049.047.09.073.124.045.063.097.096.156.096a.16.16 0 00.131-.057.209.209 0 00.048-.14c0-.034-.005-.083-.014-.149a1.277 1.277 0 01-.014-.132 9.379 9.379 0 01-.028-.692c0-.379.033-.718.098-1.018.065-.3.155-.56.271-.779a1.94 1.94 0 01.446-.568c.183-.16.378-.29.589-.391.21-.101.458-.181.742-.239.285-.058.571-.099.859-.121.288-.023.615-.034.98-.034h1.25v1.44c0 .097.035.182.106.253s.154.107.251.107.181-.036.251-.107l2.857-2.88A.346.346 0 0010 3.24a.348.348 0 00-.106-.253z"/></symbol><symbol viewBox="0 0 20 20" id="time" xmlns="http://www.w3.org/2000/svg"><path d="M18.66 4.979a9.954 9.954 0 00-3.64-3.641C13.488.445 11.815-.002 10-.002c-1.814 0-3.488.447-5.02 1.341a9.951 9.951 0 00-3.64 3.64C.446 6.511-.001 8.185-.001 10c0 1.814.447 3.487 1.341 5.02a9.959 9.959 0 003.64 3.64C6.512 19.554 8.186 20 10 20s3.488-.447 5.021-1.341a9.959 9.959 0 003.64-3.64c.894-1.533 1.341-3.206 1.341-5.02-.001-1.814-.448-3.488-1.342-5.02zm-2.526 8.575a7.064 7.064 0 01-2.579 2.579 6.93 6.93 0 01-3.555.951 6.921 6.921 0 01-3.555-.951 7.054 7.054 0 01-2.578-2.579A6.908 6.908 0 012.916 10c0-1.285.317-2.47.951-3.556a7.061 7.061 0 012.578-2.579c1.085-.633 2.27-.95 3.555-.95s2.47.317 3.555.95a7.072 7.072 0 012.579 2.579 6.926 6.926 0 01.95 3.556c0 1.284-.316 2.47-.95 3.554z"/><path d="M11.25 4.999h-.833a.406.406 0 00-.3.117.405.405 0 00-.117.3V10H7.083a.408.408 0 00-.3.117.408.408 0 00-.117.3v.833c0 .123.039.222.117.3a.407.407 0 00.3.116h4.167a.407.407 0 00.299-.116.406.406 0 00.117-.3V5.416a.408.408 0 00-.117-.3.402.402 0 00-.299-.117z"/></symbol><symbol viewBox="0 0 15 12" id="twitter" xmlns="http://www.w3.org/2000/svg"><path d="M15.001 1.426a6.22 6.22 0 01-1.771.469A2.949 2.949 0 0014.582.227c-.609.356-1.26.6-1.952.731-.609-.637-1.358-.956-2.247-.956a2.99 2.99 0 00-2.175.886c-.6.59-.899 1.304-.899 2.142 0 .224.025.456.076.693a8.7 8.7 0 01-3.536-.933A8.708 8.708 0 011.045.554a2.932 2.932 0 00-.419 1.528c0 .519.124 1 .372 1.443s.581.803 1 1.078a3.097 3.097 0 01-1.39-.384v.038c0 .73.233 1.373.699 1.926a3.025 3.025 0 001.766 1.044 3.21 3.21 0 01-.809.103c-.178 0-.372-.016-.581-.047.197.607.559 1.105 1.086 1.495s1.124.592 1.79.604c-1.117.862-2.389 1.293-3.817 1.293-.273 0-.52-.012-.742-.038 1.426.908 3 1.36 4.72 1.36a9.102 9.102 0 003.075-.51c.958-.341 1.777-.797 2.456-1.369a9.151 9.151 0 001.756-1.973 8.744 8.744 0 001.1-2.329 8.49 8.49 0 00.352-2.827 6.344 6.344 0 001.542-1.563z"/></symbol><symbol viewBox="0 0 38 38" id="zoom" xmlns="http://www.w3.org/2000/svg"><path d="M37.772 36.748l-8.661-8.662c2.702-2.945 4.365-6.86 4.365-11.173 0-9.141-7.409-16.55-16.548-16.55C7.788.363.379 7.772.379 16.913c0 9.142 7.409 16.55 16.549 16.55 4.311 0 8.224-1.662 11.169-4.363l8.661 8.662a.717.717 0 001.014-1.014zM1.884 16.913c0-8.309 6.735-15.046 15.044-15.046 8.309 0 15.044 6.737 15.044 15.046 0 8.31-6.735 15.045-15.044 15.045-8.308 0-15.044-6.736-15.044-15.045z"/></symbol></svg>