<svg xmlns="http://www.w3.org/2000/svg" width="96" height="22"><path d="M23.525 16.425a.878.878 0 00-.675.35 12.105 12.105 0 01-1.825 1.838 2.521 2.521 0 01-1.525.537 2.161 2.161 0 01-1.587-.7 8.024 8.024 0 01-1.388-2.2 8.756 8.756 0 00-1.3-2.125 3.718 3.718 0 00-1.85-1.05A8.9 8.9 0 0016.6 11.55a6.813 6.813 0 001.987-2.363 6.1 6.1 0 00.663-2.737 5.36 5.36 0 00-.788-2.875 5.237 5.237 0 00-2.412-2A9.88 9.88 0 0012.025.85a11.434 11.434 0 00-6.087 1.613 10.745 10.745 0 00-4.1 4.663 16.623 16.623 0 00-1.462 7.25 10.8 10.8 0 00.7 4.012 6.29 6.29 0 001.988 2.75 4.733 4.733 0 002.963.988 2.949 2.949 0 002.273-.813 4.426 4.426 0 001-2.337q.05-.275.25-1.525.475-2.775.575-3.3a2.261 2.261 0 011.137.425 3.961 3.961 0 01.938 1.163q.475.813 1.3 2.512a8.279 8.279 0 002.162 3 4.394 4.394 0 002.763.875 5.247 5.247 0 002.9-.788A10.824 10.824 0 0023.75 19.1a2.36 2.36 0 00.475-1.55 1.551 1.551 0 00-.187-.825.578.578 0 00-.513-.3zM6 17.875a2.914 2.914 0 01-.338 1.05.627.627 0 01-.537.325 1.271 1.271 0 01-.9-.575 4.753 4.753 0 01-.8-1.725A10.193 10.193 0 013.1 14.2a14.714 14.714 0 011.025-5.812 7.894 7.894 0 012.863-3.6 7.605 7.605 0 014.288-1.212 4.8 4.8 0 013.15.9A3.055 3.055 0 0115.5 6.95a4.191 4.191 0 01-.662 2.325 4.572 4.572 0 01-1.775 1.6 6.023 6.023 0 01-2.463.65l.75-4.15a2.783 2.783 0 00.025-.425A1.2 1.2 0 009.95 5.675 1.893 1.893 0 007.85 7.3q-.35 1.775-.75 4.225h-.625a1.286 1.286 0 00-.887.35 1.216 1.216 0 00-.388.95 1.422 1.422 0 00.313.9 1.405 1.405 0 001.162.4zm29.35-1.45a.878.878 0 00-.675.35 8.465 8.465 0 01-2.487 2.063 5.468 5.468 0 01-2.562.788 2.454 2.454 0 01-2.375-1.15 8.949 8.949 0 004.188-1.963 4.042 4.042 0 001.237-2.962 3.134 3.134 0 00-.875-2.338 3.169 3.169 0 00-2.325-.863 5.061 5.061 0 00-2.913.875 5.937 5.937 0 00-2.012 2.363 7.231 7.231 0 00-.725 3.213 5.218 5.218 0 001.45 3.9 5.566 5.566 0 004.075 1.425 7.245 7.245 0 003.612-.95 9.133 9.133 0 002.612-2.076 2.3 2.3 0 00.475-1.55 1.551 1.551 0 00-.187-.825.578.578 0 00-.512-.3zm-6.3-3.625a.918.918 0 01.712.287 1.088 1.088 0 01.262.762 2.064 2.064 0 01-.85 1.625 5.679 5.679 0 01-2.325 1.05v-.05a5.012 5.012 0 01.637-2.6A1.832 1.832 0 0129.05 12.8zm9.25 9.325a1.439 1.439 0 001.138-.413 3.9 3.9 0 00.638-1.587 17.2 17.2 0 01.987-2.9 13.427 13.427 0 011.2-2.213 1.646 1.646 0 01.912-.837q.275 0 .275.4a12.967 12.967 0 01-.325 2.175 15.58 15.58 0 00-.35 2.5 3.135 3.135 0 00.65 2.137 2.43 2.43 0 001.925.738 4.849 4.849 0 002.813-.85 11.053 11.053 0 002.312-2.175 2.3 2.3 0 00.475-1.55 1.551 1.551 0 00-.187-.825.578.578 0 00-.513-.3.878.878 0 00-.675.35 20.066 20.066 0 01-1.838 1.988 1.953 1.953 0 01-1.187.613q-.725 0-.725-1A17.339 17.339 0 0146.3 15.5a20.118 20.118 0 00.55-3.525 1.436 1.436 0 00-1.625-1.625 3.661 3.661 0 00-1.812.575A7.253 7.253 0 0041.4 12.85a14.208 14.208 0 00-1.85 3.5 17.866 17.866 0 01.25-1.85q.15-.75.4-1.75a9.526 9.526 0 00.375-1.8.517.517 0 00-.2-.475 1.411 1.411 0 00-.7-.125 2.6 2.6 0 00-1.437.338 1.881 1.881 0 00-.738 1.062 20.356 20.356 0 00-.925 6.175 9.574 9.574 0 00.387 3.2 1.365 1.365 0 001.337 1zm25.875-7.8a1.475 1.475 0 00-.35.05 15.136 15.136 0 01-2.8.5 5.624 5.624 0 00-1.362-3.238 3.894 3.894 0 00-3.063-1.312 5.037 5.037 0 00-2.825.838 5.7 5.7 0 00-2 2.325 7.632 7.632 0 00-.725 3.387 6.162 6.162 0 00.55 2.6 4.6 4.6 0 001.612 1.925 4.434 4.434 0 002.563.725 4.613 4.613 0 003.175-1.262 6.241 6.241 0 001.874-3.363 11.382 11.382 0 003.3-.6 1.284 1.284 0 00.725-1.425 1.733 1.733 0 00-.175-.825.546.546 0 00-.5-.325zm-8.2 5.15a1.551 1.551 0 01-1.263-.725 3.485 3.485 0 01-.538-2.1 4.745 4.745 0 01.663-2.712 1.963 1.963 0 011.663-.963h.125a4.336 4.336 0 00-.075.8 4.069 4.069 0 00.413 1.8 3.449 3.449 0 001.188 1.375 3.612 3.612 0 01-.788 1.875 1.813 1.813 0 01-1.387.65zm11 2.65a1.439 1.439 0 001.138-.413 3.9 3.9 0 00.638-1.587 22.055 22.055 0 01.862-2.75 12.894 12.894 0 011.112-2.3 1.594 1.594 0 01.95-.9q.275 0 .275.4 0 .5-.2 2.1a21.614 21.614 0 00-.25 2.75 4.079 4.079 0 00.412 1.912 1.324 1.324 0 001.237.788 1.5 1.5 0 001.163-.4 3.82 3.82 0 00.638-1.6 17.971 17.971 0 01.975-2.9 12.3 12.3 0 011.2-2.213 1.682 1.682 0 01.925-.837q.275 0 .275.4A12.967 12.967 0 0178 16.75a15.58 15.58 0 00-.35 2.5 3.135 3.135 0 00.65 2.137 2.43 2.43 0 001.925.738 4.849 4.849 0 002.813-.85 11.053 11.053 0 002.311-2.175 2.3 2.3 0 00.475-1.55 1.551 1.551 0 00-.187-.825.578.578 0 00-.513-.3.878.878 0 00-.675.35 20.066 20.066 0 01-1.838 1.988 1.953 1.953 0 01-1.187.613q-.725 0-.725-1a17.339 17.339 0 01.475-2.875 20.118 20.118 0 00.55-3.525A1.436 1.436 0 0080.1 10.35a4.4 4.4 0 00-2.85 1.4 12.377 12.377 0 00-2.775 4.475q.075-.45.275-1.35a15.859 15.859 0 00.475-2.9 1.78 1.78 0 00-.362-1.225 1.612 1.612 0 00-1.237-.4 3.384 3.384 0 00-1.862.662 7.594 7.594 0 00-1.925 2.013 13.528 13.528 0 00-1.612 3.3 17.267 17.267 0 01.25-1.837q.15-.737.4-1.738a9.526 9.526 0 00.375-1.8.517.517 0 00-.2-.475 1.411 1.411 0 00-.7-.125 2.6 2.6 0 00-1.437.338 1.881 1.881 0 00-.737 1.063 20.356 20.356 0 00-.925 6.175 9.574 9.574 0 00.388 3.2 1.365 1.365 0 001.337 1zm28.275-4.95a.86.86 0 00-.675.375 8.172 8.172 0 01-1.537 1.6 2.825 2.825 0 01-1.687.475 2.1 2.1 0 01-2.025-1.15 8.974 8.974 0 004.213-1.963 4.042 4.042 0 001.237-2.962 3.134 3.134 0 00-.875-2.338 3.169 3.169 0 00-2.325-.863 5.061 5.061 0 00-2.912.875 5.937 5.937 0 00-2.013 2.363 7.231 7.231 0 00-.725 3.213 5.51 5.51 0 001.325 3.887 4.812 4.812 0 003.725 1.438 5.742 5.742 0 002.713-.6 4.868 4.868 0 001.837-1.675 2.77 2.77 0 00.425-1.55 1.551 1.551 0 00-.187-.825.578.578 0 00-.512-.3zm-4.1-4.375a.918.918 0 01.713.287 1.088 1.088 0 01.263.762 2.064 2.064 0 01-.85 1.625 5.679 5.679 0 01-2.325 1.05v-.05a5.012 5.012 0 01.638-2.6 1.832 1.832 0 011.56-1.074z"/></svg>