<svg xmlns="http://www.w3.org/2000/svg" width="60" height="24"><path fill="#dcdee0" d="M12 4.65a.382.382 0 0 0-.4-.35l-3.624-.55L6.353.311A.415.415 0 0 0 6 0a.415.415 0 0 0-.353.31L4.024 3.75.4 4.3a.382.382 0 0 0-.4.35.587.587 0 0 0 .18.363L2.805 7.69l-.62 3.78a1.282 1.282 0 0 0-.014.151.46.46 0 0 0 .076.268.257.257 0 0 0 .227.11.588.588 0 0 0 .288-.091L6 10.124l3.238 1.784a.563.563 0 0 0 .289.092.25.25 0 0 0 .22-.11.461.461 0 0 0 .076-.268 1.2 1.2 0 0 0-.007-.151L9.195 7.69l2.618-2.676A.556.556 0 0 0 12 4.65zm12 0a.382.382 0 0 0-.4-.35l-3.62-.552-1.623-3.44a.356.356 0 0 0-.707 0L16.024 3.75 12.4 4.3a.382.382 0 0 0-.4.348.587.587 0 0 0 .18.363l2.625 2.679-.62 3.78a1.29 1.29 0 0 0-.014.151.459.459 0 0 0 .076.268.257.257 0 0 0 .227.11.588.588 0 0 0 .288-.091L18 10.124l3.238 1.784a.563.563 0 0 0 .288.091.25.25 0 0 0 .22-.11.461.461 0 0 0 .076-.268 1.179 1.179 0 0 0-.007-.151l-.62-3.78 2.618-2.676A.556.556 0 0 0 24 4.65zm12 0a.382.382 0 0 0-.4-.35l-3.62-.552-1.623-3.44a.356.356 0 0 0-.707 0L28.024 3.75 24.4 4.3a.382.382 0 0 0-.4.348.587.587 0 0 0 .18.363l2.625 2.679-.62 3.78a1.268 1.268 0 0 0-.014.151.46.46 0 0 0 .076.268.257.257 0 0 0 .227.11.589.589 0 0 0 .288-.091L30 10.124l3.238 1.784a.563.563 0 0 0 .288.091.25.25 0 0 0 .22-.11.461.461 0 0 0 .076-.268 1.2 1.2 0 0 0-.007-.151l-.62-3.78 2.618-2.676A.555.555 0 0 0 36 4.65zm12 0a.382.382 0 0 0-.4-.35l-3.62-.552-1.623-3.44a.356.356 0 0 0-.707 0L40.024 3.75 36.4 4.3a.382.382 0 0 0-.4.348.587.587 0 0 0 .18.363l2.625 2.679-.62 3.78a1.29 1.29 0 0 0-.014.151.46.46 0 0 0 .076.268.257.257 0 0 0 .227.11.588.588 0 0 0 .288-.091L42 10.124l3.238 1.784a.563.563 0 0 0 .288.091.25.25 0 0 0 .22-.11.461.461 0 0 0 .076-.268 1.158 1.158 0 0 0-.007-.151l-.62-3.78 2.618-2.676A.556.556 0 0 0 48 4.65zm12 0a.382.382 0 0 0-.4-.35l-3.62-.552-1.623-3.44a.356.356 0 0 0-.707 0L52.024 3.75 48.4 4.3a.382.382 0 0 0-.4.348.587.587 0 0 0 .18.363l2.625 2.679-.62 3.78a1.29 1.29 0 0 0-.014.151.46.46 0 0 0 .076.268.257.257 0 0 0 .227.11.588.588 0 0 0 .288-.091L54 10.124l3.238 1.784a.563.563 0 0 0 .288.091.25.25 0 0 0 .22-.11.461.461 0 0 0 .076-.268 1.179 1.179 0 0 0-.007-.151l-.62-3.78 2.618-2.676A.556.556 0 0 0 60 4.65z"/><path fill="#985e5b" d="M12 16.65a.382.382 0 0 0-.4-.348l-3.62-.552-1.623-3.44A.415.415 0 0 0 6 12a.415.415 0 0 0-.353.31l-1.623 3.44L.4 16.3a.382.382 0 0 0-.4.348.587.587 0 0 0 .18.363l2.625 2.679-.62 3.78a1.282 1.282 0 0 0-.014.151.46.46 0 0 0 .076.268.257.257 0 0 0 .227.11.588.588 0 0 0 .288-.091L6 22.124l3.238 1.784a.563.563 0 0 0 .289.092.25.25 0 0 0 .22-.11.461.461 0 0 0 .076-.268 1.2 1.2 0 0 0-.007-.151l-.62-3.78 2.618-2.676A.555.555 0 0 0 12 16.65zm12 0a.382.382 0 0 0-.4-.348l-3.62-.552-1.623-3.44a.356.356 0 0 0-.707 0l-1.623 3.44-3.627.55a.382.382 0 0 0-.4.348.587.587 0 0 0 .18.363l2.625 2.676-.62 3.78a1.29 1.29 0 0 0-.014.151.459.459 0 0 0 .076.268.257.257 0 0 0 .227.11.588.588 0 0 0 .288-.091L18 22.124l3.238 1.784a.563.563 0 0 0 .288.091.25.25 0 0 0 .22-.11.461.461 0 0 0 .076-.268 1.179 1.179 0 0 0-.007-.151l-.62-3.78 2.618-2.676A.556.556 0 0 0 24 16.65zm12 0a.382.382 0 0 0-.4-.348l-3.62-.552-1.623-3.44a.356.356 0 0 0-.707 0l-1.623 3.44-3.627.55a.382.382 0 0 0-.4.348.587.587 0 0 0 .18.363l2.625 2.676-.62 3.78a1.268 1.268 0 0 0-.014.151.46.46 0 0 0 .076.268.257.257 0 0 0 .227.11.589.589 0 0 0 .288-.091L30 22.124l3.238 1.784a.563.563 0 0 0 .288.091.25.25 0 0 0 .22-.11.461.461 0 0 0 .076-.268 1.2 1.2 0 0 0-.007-.151l-.62-3.78 2.618-2.676A.555.555 0 0 0 36 16.65zm12 0a.382.382 0 0 0-.4-.348l-3.62-.552-1.623-3.44a.356.356 0 0 0-.707 0l-1.623 3.44-3.627.55a.382.382 0 0 0-.4.348.587.587 0 0 0 .18.363l2.625 2.676-.62 3.78a1.29 1.29 0 0 0-.014.151.46.46 0 0 0 .076.268.257.257 0 0 0 .227.11.588.588 0 0 0 .288-.091L42 22.124l3.238 1.784a.563.563 0 0 0 .288.091.25.25 0 0 0 .22-.11.461.461 0 0 0 .076-.268 1.158 1.158 0 0 0-.007-.151l-.62-3.78 2.618-2.676A.556.556 0 0 0 48 16.65zm12 0a.382.382 0 0 0-.4-.348l-3.62-.552-1.623-3.44a.356.356 0 0 0-.707 0l-1.623 3.44-3.627.55a.382.382 0 0 0-.4.348.587.587 0 0 0 .18.363l2.625 2.676-.62 3.78a1.29 1.29 0 0 0-.014.151.46.46 0 0 0 .076.268.257.257 0 0 0 .227.11.588.588 0 0 0 .288-.091L54 22.124l3.238 1.784a.563.563 0 0 0 .288.091.25.25 0 0 0 .22-.11.461.461 0 0 0 .076-.268 1.179 1.179 0 0 0-.007-.151l-.62-3.78 2.618-2.676A.556.556 0 0 0 60 16.65z"/></svg>